<svg width="32" height="34" viewBox="0 0 32 34" fill="none" xmlns="http://www.w3.org/2000/svg">
<g clip-path="url(#clip0_7_2063)">
<path fill-rule="evenodd" clip-rule="evenodd" d="M8.7342 32.5199C10.9515 33.7024 13.4635 33.9761 16.1253 33.9978C18.4784 34.0171 20.712 33.9259 22.7168 33.0186C24.8769 32.0409 27.1653 29.3741 28.673 27.572C31.0206 24.7659 32.031 22.33 31.9993 18.3323C31.9765 15.4646 31.2193 12.7649 29.9099 10.4177C28.5973 8.06478 26.7298 6.06611 24.491 4.6075C21.9946 2.98111 19.0365 2.02616 15.8712 2.00029C13.5957 1.9817 11.4382 2.85005 9.4853 3.70111C6.62473 4.94771 4.60671 6.62446 2.92993 9.23894C1.30608 11.7709 -0.0255852 14.8023 0.00037319 18.0708C0.0308019 21.9022 1.77214 25.437 3.98992 28.2286C5.39128 29.9925 6.74259 31.4578 8.7342 32.5199ZM16.3673 20.9976C17.0764 21.0268 17.7497 20.7908 18.4306 20.473C19.0325 20.1921 19.5905 19.8978 19.9907 19.4253C20.4219 18.9162 20.6801 17.965 20.8446 17.327C21.1008 16.3335 21.0615 15.5959 20.5663 14.5906C20.211 13.8695 19.6891 13.2799 19.0695 12.8465C18.4484 12.4119 17.729 12.1342 16.9809 12.0379C16.1467 11.9305 15.2766 12.0487 14.467 12.4266C13.8849 12.6983 13.4411 13.1795 13.0472 13.6315C12.4702 14.2936 12.1604 14.9619 12.0517 15.8256C11.9465 16.6619 11.9766 17.5889 12.3815 18.4108C12.8561 19.3743 13.7304 20.0551 14.6357 20.4905C15.2076 20.7655 15.7305 20.9713 16.3673 20.9976Z" fill="#AA7333"/>
<path fill-rule="evenodd" clip-rule="evenodd" d="M8.7342 30.5199C10.9515 31.7024 13.4635 31.9761 16.1253 31.9978C18.4784 32.0171 20.712 31.9259 22.7168 31.0186C24.8769 30.0409 27.1653 27.3741 28.673 25.572C31.0206 22.7659 32.031 20.33 31.9993 16.3323C31.9765 13.4646 31.2193 10.7649 29.9099 8.41765C28.5973 6.06478 26.7298 4.06611 24.491 2.6075C21.9946 0.981112 19.0365 0.0261647 15.8712 0.000293517C13.5957 -0.0183041 11.4382 0.850045 9.4853 1.70111C6.62473 2.94771 4.60671 4.62446 2.92993 7.23894C1.30608 9.77091 -0.0255852 12.8023 0.00037319 16.0708C0.0308019 19.9022 1.77214 23.437 3.98992 26.2286C5.39128 27.9925 6.74259 29.4578 8.7342 30.5199ZM16.3673 20.9976C17.0764 21.0268 17.7497 20.7908 18.4306 20.473C19.0325 20.1921 19.5905 19.8978 19.9907 19.4253C20.4219 18.9162 20.6801 17.965 20.8446 17.327C21.1008 16.3335 21.0615 15.5959 20.5663 14.5906C20.211 13.8695 19.6891 13.2799 19.0695 12.8465C18.4484 12.4119 17.729 12.1342 16.9809 12.0379C16.1467 11.9305 15.2766 12.0487 14.467 12.4266C13.8849 12.6983 13.4411 13.1795 13.0472 13.6315C12.4702 14.2936 12.1604 14.9619 12.0517 15.8256C11.9465 16.6619 11.9766 17.5889 12.3815 18.4108C12.8561 19.3743 13.7304 20.0551 14.6357 20.4905C15.2076 20.7655 15.7305 20.9713 16.3673 20.9976Z" fill="#FFA96E"/>
<path fill-rule="evenodd" clip-rule="evenodd" d="M21.0278 28.511C23.2297 27.8265 25.0402 26.3671 26.7867 24.6486C28.3306 23.1293 29.726 21.6171 30.4487 19.73C31.2273 17.6968 31.0058 14.4963 30.8309 12.3587C30.5584 9.03032 29.6532 6.80975 27.0676 4.26553C25.2129 2.44039 22.9879 1.20107 20.6296 0.547353C18.2657 -0.10794 15.7678 -0.174804 13.3748 0.346549C10.7064 0.927873 8.16838 2.24052 6.0915 4.28421C4.59852 5.75331 3.75141 7.7147 3.02635 9.53186C1.9643 12.1936 1.72662 14.5829 2.31272 17.3517C2.88032 20.0331 3.95852 22.8448 6.07251 24.9251C8.55056 27.3635 11.9519 28.498 15.1865 28.8456C17.2304 29.0653 19.05 29.1259 21.0278 28.511ZM16.3673 20.9976C17.0764 21.0268 17.7497 20.7908 18.4306 20.473C19.0325 20.1921 19.5905 19.8978 19.9907 19.4253C20.4219 18.9162 20.6801 17.965 20.8446 17.327C21.1008 16.3335 21.0615 15.5959 20.5663 14.5906C20.211 13.8695 19.6891 13.2799 19.0695 12.8465C18.4484 12.4119 17.729 12.1342 16.9809 12.0379C16.1467 11.9305 15.2766 12.0487 14.467 12.4266C13.8849 12.6983 13.4411 13.1795 13.0472 13.6315C12.4702 14.2936 12.1604 14.9619 12.0517 15.8256C11.9465 16.6619 11.9766 17.5889 12.3815 18.4108C12.8561 19.3743 13.7304 20.0551 14.6357 20.4905C15.2076 20.7655 15.7305 20.9713 16.3673 20.9976Z" fill="#D4535C"/>
<path fill-rule="evenodd" clip-rule="evenodd" d="M22.7471 25.5785C24.5694 24.9884 26.0678 23.7303 27.5131 22.2488C28.7909 20.9391 29.9456 19.6354 30.5437 18.0086C31.1881 16.2559 31.0048 13.4968 30.86 11.6541C30.6346 8.78476 29.8854 6.87048 27.7456 4.67718C26.2106 3.10379 24.3693 2.03541 22.4176 1.47186C20.4612 0.906948 18.3941 0.849307 16.4136 1.29875C14.2053 1.79989 12.1049 2.93149 10.3861 4.69328C9.1505 5.95975 8.44945 7.6506 7.84939 9.21712C6.97045 11.5117 6.77376 13.5714 7.2588 15.9584C7.72854 18.27 8.62084 20.6938 10.3704 22.4871C12.4212 24.5892 15.236 25.5673 17.913 25.8669C19.6044 26.0563 21.1104 26.1085 22.7471 25.5785ZM16.3673 20.9976C17.0764 21.0268 17.7497 20.7908 18.4306 20.473C19.0325 20.1921 19.5905 19.8978 19.9907 19.4253C20.4219 18.9162 20.6801 17.965 20.8446 17.327C21.1008 16.3335 21.0615 15.5959 20.5663 14.5906C20.211 13.8695 19.6891 13.2799 19.0695 12.8465C18.4484 12.4119 17.729 12.1342 16.9809 12.0379C16.1467 11.9305 15.2766 12.0487 14.467 12.4266C13.8849 12.6983 13.4411 13.1795 13.0472 13.6315C12.4702 14.2936 12.1604 14.9619 12.0517 15.8256C11.9465 16.6619 11.9766 17.5889 12.3815 18.4108C12.8561 19.3743 13.7304 20.0551 14.6357 20.4905C15.2076 20.7655 15.7305 20.9713 16.3673 20.9976Z" fill="#FF626E"/>
<path fill-rule="evenodd" clip-rule="evenodd" d="M19.5451 23.657C20.8103 23.2354 21.8237 22.3938 22.7917 21.4104C23.6475 20.5411 24.4167 19.6785 24.7818 18.6224C25.1751 17.4845 24.949 15.7221 24.7823 14.5455C24.5226 12.7134 23.9268 11.5055 22.3399 10.1523C21.2016 9.18158 19.8646 8.54159 18.4676 8.22752C17.0672 7.9127 15.6064 7.92537 14.2245 8.2607C12.6837 8.63459 11.2411 9.40964 10.0899 10.5791C9.26237 11.4198 8.8269 12.5194 8.45835 13.5369C7.91851 15.0274 7.85189 16.3511 8.27784 17.868C8.69035 19.3371 9.405 20.8679 10.7025 21.9743C12.2234 23.2712 14.2441 23.83 16.1437 23.9577C17.344 24.0384 18.4086 24.0357 19.5451 23.657ZM16.3673 20.9976C17.0764 21.0268 17.7497 20.7908 18.4306 20.473C19.0325 20.1921 19.5905 19.8978 19.9907 19.4253C20.4219 18.9162 20.6801 17.965 20.8446 17.327C21.1008 16.3335 21.0615 15.5959 20.5663 14.5906C20.211 13.8695 19.6891 13.2799 19.0695 12.8465C18.4484 12.4119 17.729 12.1342 16.9809 12.0379C16.1467 11.9305 15.2766 12.0487 14.467 12.4266C13.8849 12.6983 13.4411 13.1795 13.0472 13.6315C12.4702 14.2936 12.1604 14.9619 12.0517 15.8256C11.9465 16.6619 11.9766 17.5889 12.3815 18.4108C12.8561 19.3743 13.7304 20.0551 14.6357 20.4905C15.2076 20.7655 15.7305 20.9713 16.3673 20.9976Z" fill="#D4535C"/>
<path fill-rule="evenodd" clip-rule="evenodd" d="M19.1868 22.6785C20.3032 22.2832 21.1974 21.4942 22.0515 20.5723C22.8066 19.7573 23.4854 18.9486 23.8075 17.9585C24.1545 16.8918 23.955 15.2394 23.8079 14.1364C23.5788 12.4189 23.0531 11.2864 21.6529 10.0178C20.6484 9.10773 19.4688 8.50774 18.2361 8.2133C17.0005 7.91815 15.7115 7.93004 14.4922 8.2444C13.1327 8.59493 11.8598 9.32153 10.844 10.4179C10.1139 11.206 9.72962 12.2369 9.40442 13.1909C8.9281 14.5882 8.86931 15.8292 9.24516 17.2513C9.60913 18.6285 10.2397 20.0636 11.3845 21.1009C12.7265 22.3168 14.5095 22.8407 16.1856 22.9604C17.2447 23.036 18.184 23.0335 19.1868 22.6785ZM16.3673 20.9976C17.0764 21.0268 17.7497 20.7908 18.4306 20.473C19.0325 20.1921 19.5905 19.8978 19.9907 19.4253C20.4219 18.9162 20.6801 17.965 20.8446 17.327C21.1008 16.3335 21.0615 15.5959 20.5663 14.5906C20.211 13.8695 19.6891 13.2799 19.0695 12.8465C18.4484 12.4119 17.729 12.1342 16.9809 12.0379C16.1467 11.9305 15.2766 12.0487 14.467 12.4266C13.8849 12.6983 13.4411 13.1795 13.0472 13.6315C12.4702 14.2936 12.1604 14.9619 12.0517 15.8256C11.9465 16.6619 11.9766 17.5889 12.3815 18.4108C12.8561 19.3743 13.7304 20.0551 14.6357 20.4905C15.2076 20.7655 15.7305 20.9713 16.3673 20.9976Z" fill="#C25054"/>
<path d="M18.8286 20.7213C19.7961 20.3788 20.571 19.695 21.3113 18.896C21.9657 18.1896 22.554 17.4888 22.8331 16.6307C23.1339 15.7062 22.961 14.2742 22.8335 13.3182C22.6349 11.8297 22.1793 10.8483 20.9658 9.74877C20.0953 8.96004 19.073 8.44004 18.0046 8.18486C16.9338 7.92907 15.8167 7.93937 14.7599 8.21182C13.5817 8.51561 12.4785 9.14533 11.5982 10.0955C10.9653 10.7786 10.6323 11.672 10.3505 12.4987C9.93768 13.7098 9.88674 14.7853 10.2125 16.0178C10.5279 17.2114 11.0744 18.4552 12.0666 19.3541C13.1189 20.3075 14.484 20.77 15.8103 20.9262C15.406 20.839 15.0327 20.6814 14.6357 20.4905C13.7304 20.0551 12.8561 19.3743 12.3815 18.4108C11.9766 17.5889 11.9465 16.6619 12.0517 15.8256C12.1604 14.9619 12.4702 14.2936 13.0472 13.6315C13.4411 13.1795 13.8849 12.6983 14.467 12.4266C15.2766 12.0487 16.1467 11.9305 16.9809 12.0379C17.729 12.1342 18.4484 12.4119 19.0695 12.8465C19.6891 13.2799 20.211 13.8695 20.5663 14.5906C21.0615 15.5959 21.1008 16.3335 20.8446 17.327C20.6801 17.965 20.4219 18.9162 19.9907 19.4253C19.5905 19.8978 19.0325 20.1921 18.4306 20.473C17.8564 20.741 17.2876 20.9508 16.6981 20.9925C17.4304 21.0212 18.1107 20.9755 18.8286 20.7213Z" fill="#FFA96F"/>
<path d="M16.5722 5.19711C16.4825 4.82691 16.6988 4.45132 17.0551 4.35821L18.3456 4.02104C18.702 3.92793 19.0636 4.15256 19.1532 4.52276C19.2428 4.89297 19.0266 5.26855 18.6702 5.36166L17.3797 5.69884C17.0233 5.79194 16.6618 5.56731 16.5722 5.19711Z" fill="white"/>
<path d="M6.19811 9.03951C6.43446 8.74721 6.85415 8.7093 7.13552 8.95483L8.15444 9.84396C8.43581 10.0895 8.4723 10.5255 8.23595 10.8178C7.9996 11.1101 7.57991 11.148 7.29854 10.9024L6.27962 10.0133C5.99825 9.76779 5.96176 9.3318 6.19811 9.03951Z" fill="white"/>
<path d="M20.761 22.9001C21.1191 22.9859 21.3424 23.3569 21.2599 23.7289L21.0373 24.7322C20.9547 25.1041 20.5975 25.3362 20.2395 25.2504C19.8814 25.1647 19.658 24.7936 19.7406 24.4217L19.9632 23.4184C20.0457 23.0464 20.4029 22.8144 20.761 22.9001Z" fill="white"/>
<path d="M22.929 7.32901C23.2526 7.50994 23.3737 7.92909 23.1995 8.26523L22.5688 9.48248C22.3947 9.81861 21.9912 9.94444 21.6676 9.76351C21.344 9.58259 21.2229 9.16344 21.3971 8.8273L22.0278 7.61005C22.2019 7.27392 22.6054 7.14809 22.929 7.32901Z" fill="white"/>
<path d="M7.61151 14.3174C7.93508 14.4984 8.0562 14.9175 7.88204 15.2537L7.25136 16.4709C7.0772 16.807 6.67371 16.9329 6.35014 16.7519C6.02657 16.571 5.90544 16.1519 6.0796 15.8157L6.71029 14.5985C6.88445 14.2623 7.28794 14.1365 7.61151 14.3174Z" fill="white"/>
<path d="M25.4309 11.9988C25.7586 11.826 26.1591 11.9618 26.3254 12.3022L26.9278 13.5348C27.0941 13.8752 26.9634 14.2912 26.6357 14.464C26.308 14.6368 25.9076 14.501 25.7412 14.1606L25.1389 12.928C24.9725 12.5876 25.1033 12.1716 25.4309 11.9988Z" fill="white"/>
<path d="M10.7932 4.62613C11.1209 4.45333 11.5213 4.58918 11.6877 4.92956L12.2901 6.16219C12.4564 6.50257 12.3256 6.91859 11.998 7.09138C11.6703 7.26418 11.2698 7.12833 11.1035 6.78795L10.5011 5.55532C10.3348 5.21494 10.4656 4.79893 10.7932 4.62613Z" fill="white"/>
<path d="M25.7698 18.8259C25.7994 19.2064 25.5264 19.5398 25.1602 19.5705L23.8338 19.6818C23.4675 19.7125 23.1466 19.429 23.117 19.0485C23.0874 18.668 23.3604 18.3347 23.7266 18.3039L25.053 18.1926C25.4193 18.1619 25.7402 18.4454 25.7698 18.8259Z" fill="white"/>
<path d="M9.35778 20.6691C9.38736 21.0496 9.11443 21.3829 8.74816 21.4137L7.42178 21.525C7.05551 21.5557 6.7346 21.2722 6.70501 20.8917C6.67543 20.5112 6.94836 20.1778 7.31463 20.1471L8.64102 20.0358C9.00729 20.0051 9.32819 20.2886 9.35778 20.6691Z" fill="white"/>
<path d="M14.3651 24.3867C14.7057 24.2434 15.0936 24.4141 15.2316 24.7679L15.7311 26.0492C15.869 26.403 15.7048 26.806 15.3642 26.9493C15.0236 27.0926 14.6356 26.9219 14.4977 26.5681L13.9982 25.2868C13.8603 24.933 14.0245 24.53 14.3651 24.3867Z" fill="white"/>
</g>
<defs>
<clipPath id="clip0_7_2063">
<rect width="32" height="34" fill="white"/>
</clipPath>
</defs>
</svg>
