<svg width="20" height="22" viewBox="0 0 20 22" fill="none" xmlns="http://www.w3.org/2000/svg">
<path fill-rule="evenodd" clip-rule="evenodd" d="M16.6236 15.6005C16.5702 15.3056 16.6063 15.0015 16.7273 14.7273C16.8425 14.4584 17.0339 14.2291 17.2778 14.0676C17.5217 13.906 17.8075 13.8193 18.1 13.8182H18.1818C18.664 13.8182 19.1265 13.6266 19.4675 13.2856C19.8084 12.9447 20 12.4822 20 12C20 11.5178 19.8084 11.0553 19.4675 10.7144C19.1265 10.3734 18.664 10.1818 18.1818 10.1818H18.0273C17.7347 10.1807 17.4489 10.094 17.205 9.93245C16.9611 9.77093 16.7698 9.54161 16.6545 9.27273V9.2C16.5335 8.9258 16.4974 8.62164 16.5509 8.32674C16.6044 8.03183 16.745 7.75971 16.9545 7.54545L17.0091 7.49091C17.1781 7.32205 17.3122 7.12152 17.4037 6.9008C17.4952 6.68008 17.5423 6.44348 17.5423 6.20455C17.5423 5.96561 17.4952 5.72901 17.4037 5.50829C17.3122 5.28757 17.1781 5.08704 17.0091 4.91818C16.8402 4.74913 16.6397 4.61503 16.419 4.52353C16.1983 4.43203 15.9617 4.38493 15.7227 4.38493C15.4838 4.38493 15.2472 4.43203 15.0265 4.52353C14.8057 4.61503 14.6052 4.74913 14.4364 4.91818L14.3818 4.97273C14.1676 5.18231 13.8954 5.3229 13.6005 5.37637C13.3056 5.42984 13.0015 5.39374 12.7273 5.27273C12.4584 5.15749 12.2291 4.96614 12.0676 4.72224C11.906 4.47834 11.8193 4.19253 11.8182 3.9V3.81818C11.8182 3.33597 11.6266 2.87351 11.2856 2.53253C10.9447 2.19156 10.4822 2 10 2C9.51779 2 9.05533 2.19156 8.71435 2.53253C8.37338 2.87351 8.18182 3.33597 8.18182 3.81818V3.97273C8.18065 4.26526 8.09397 4.55107 7.93245 4.79497C7.77093 5.03887 7.54161 5.23022 7.27273 5.34545H7.2C6.9258 5.46647 6.62164 5.50257 6.32674 5.4491C6.03183 5.39562 5.75971 5.25503 5.54545 5.04545L5.49091 4.99091C5.32205 4.82186 5.12152 4.68775 4.9008 4.59626C4.68008 4.50476 4.44348 4.45766 4.20455 4.45766C3.96561 4.45766 3.72901 4.50476 3.50829 4.59626C3.28757 4.68775 3.08704 4.82186 2.91818 4.99091C2.74913 5.15977 2.61503 5.36029 2.52353 5.58102C2.43203 5.80174 2.38493 6.03834 2.38493 6.27727C2.38493 6.51621 2.43203 6.7528 2.52353 6.97353C2.61503 7.19425 2.74913 7.39478 2.91818 7.56364L2.97273 7.61818C3.18231 7.83244 3.3229 8.10456 3.37637 8.39947C3.42984 8.69437 3.39374 8.99853 3.27273 9.27273C3.16883 9.55521 2.98236 9.79991 2.73754 9.97501C2.49273 10.1501 2.2009 10.2475 1.9 10.2545H1.81818C1.33597 10.2545 0.873508 10.4461 0.532533 10.7871C0.191558 11.1281 0 11.5905 0 12.0727C0 12.5549 0.191558 13.0174 0.532533 13.3584C0.873508 13.6994 1.33597 13.8909 1.81818 13.8909H1.97273C2.26526 13.8921 2.55107 13.9788 2.79497 14.1403C3.03887 14.3018 3.23022 14.5311 3.34545 14.8C3.46647 15.0742 3.50257 15.3784 3.4491 15.6733C3.39562 15.9682 3.25503 16.2403 3.04545 16.4545L2.99091 16.5091C2.82186 16.6779 2.68775 16.8785 2.59626 17.0992C2.50476 17.3199 2.45766 17.5565 2.45766 17.7955C2.45766 18.0344 2.50476 18.271 2.59626 18.4917C2.68775 18.7124 2.82186 18.913 2.99091 19.0818C3.15977 19.2509 3.36029 19.385 3.58102 19.4765C3.80174 19.568 4.03834 19.6151 4.27727 19.6151C4.51621 19.6151 4.7528 19.568 4.97353 19.4765C5.19425 19.385 5.39478 19.2509 5.56364 19.0818L5.61818 19.0273C5.83244 18.8177 6.10456 18.6771 6.39947 18.6236C6.69437 18.5702 6.99853 18.6063 7.27273 18.7273C7.55521 18.8312 7.79991 19.0176 7.97501 19.2625C8.15011 19.5073 8.24751 19.7991 8.25455 20.1V20.1818C8.25455 20.664 8.4461 21.1265 8.78708 21.4675C9.12805 21.8084 9.59052 22 10.0727 22C10.5549 22 11.0174 21.8084 11.3584 21.4675C11.6994 21.1265 11.8909 20.664 11.8909 20.1818V20.0273C11.8921 19.7347 11.9788 19.4489 12.1403 19.205C12.3018 18.9611 12.5311 18.7698 12.8 18.6545C13.0742 18.5335 13.3784 18.4974 13.6733 18.5509C13.9682 18.6044 14.2403 18.745 14.4545 18.9545L14.5091 19.0091C14.6779 19.1781 14.8785 19.3122 15.0992 19.4037C15.3199 19.4952 15.5565 19.5423 15.7955 19.5423C16.0344 19.5423 16.271 19.4952 16.4917 19.4037C16.7124 19.3122 16.913 19.1781 17.0818 19.0091C17.2509 18.8402 17.385 18.6397 17.4765 18.419C17.568 18.1983 17.6151 17.9617 17.6151 17.7227C17.6151 17.4838 17.568 17.2472 17.4765 17.0265C17.385 16.8057 17.2509 16.6052 17.0818 16.4364L17.0273 16.3818C16.8177 16.1676 16.6771 15.8954 16.6236 15.6005ZM12.7273 12C12.7273 13.5062 11.5062 14.7273 10 14.7273C8.49377 14.7273 7.27273 13.5062 7.27273 12C7.27273 10.4938 8.49377 9.27273 10 9.27273C11.5062 9.27273 12.7273 10.4938 12.7273 12Z" fill="#D8A208"/>
<path fill-rule="evenodd" clip-rule="evenodd" d="M16.6236 13.6005C16.5702 13.3056 16.6063 13.0015 16.7273 12.7273C16.8425 12.4584 17.0339 12.2291 17.2778 12.0676C17.5217 11.906 17.8075 11.8193 18.1 11.8182H18.1818C18.664 11.8182 19.1265 11.6266 19.4675 11.2856C19.8084 10.9447 20 10.4822 20 10C20 9.51779 19.8084 9.05533 19.4675 8.71435C19.1265 8.37338 18.664 8.18182 18.1818 8.18182H18.0273C17.7347 8.18065 17.4489 8.09397 17.205 7.93245C16.9611 7.77093 16.7698 7.54161 16.6545 7.27273V7.2C16.5335 6.9258 16.4974 6.62164 16.5509 6.32674C16.6044 6.03183 16.745 5.75971 16.9545 5.54545L17.0091 5.49091C17.1781 5.32205 17.3122 5.12152 17.4037 4.9008C17.4952 4.68008 17.5423 4.44348 17.5423 4.20455C17.5423 3.96561 17.4952 3.72901 17.4037 3.50829C17.3122 3.28757 17.1781 3.08704 17.0091 2.91818C16.8402 2.74913 16.6397 2.61503 16.419 2.52353C16.1983 2.43203 15.9617 2.38493 15.7227 2.38493C15.4838 2.38493 15.2472 2.43203 15.0265 2.52353C14.8057 2.61503 14.6052 2.74913 14.4364 2.91818L14.3818 2.97273C14.1676 3.18231 13.8954 3.3229 13.6005 3.37637C13.3056 3.42984 13.0015 3.39374 12.7273 3.27273C12.4584 3.15749 12.2291 2.96614 12.0676 2.72224C11.906 2.47834 11.8193 2.19253 11.8182 1.9V1.81818C11.8182 1.33597 11.6266 0.873508 11.2856 0.532533C10.9447 0.191558 10.4822 0 10 0C9.51779 0 9.05533 0.191558 8.71435 0.532533C8.37338 0.873508 8.18182 1.33597 8.18182 1.81818V1.97273C8.18065 2.26526 8.09397 2.55107 7.93245 2.79497C7.77093 3.03887 7.54161 3.23022 7.27273 3.34545H7.2C6.9258 3.46647 6.62164 3.50257 6.32674 3.4491C6.03183 3.39562 5.75971 3.25503 5.54545 3.04545L5.49091 2.99091C5.32205 2.82186 5.12152 2.68775 4.9008 2.59626C4.68008 2.50476 4.44348 2.45766 4.20455 2.45766C3.96561 2.45766 3.72901 2.50476 3.50829 2.59626C3.28757 2.68775 3.08704 2.82186 2.91818 2.99091C2.74913 3.15977 2.61503 3.36029 2.52353 3.58102C2.43203 3.80174 2.38493 4.03834 2.38493 4.27727C2.38493 4.51621 2.43203 4.7528 2.52353 4.97353C2.61503 5.19425 2.74913 5.39478 2.91818 5.56364L2.97273 5.61818C3.18231 5.83244 3.3229 6.10456 3.37637 6.39947C3.42984 6.69437 3.39374 6.99853 3.27273 7.27273C3.16883 7.55521 2.98236 7.79991 2.73754 7.97501C2.49273 8.15011 2.2009 8.24751 1.9 8.25455H1.81818C1.33597 8.25455 0.873508 8.4461 0.532533 8.78708C0.191558 9.12805 0 9.59052 0 10.0727C0 10.5549 0.191558 11.0174 0.532533 11.3584C0.873508 11.6994 1.33597 11.8909 1.81818 11.8909H1.97273C2.26526 11.8921 2.55107 11.9788 2.79497 12.1403C3.03887 12.3018 3.23022 12.5311 3.34545 12.8C3.46647 13.0742 3.50257 13.3784 3.4491 13.6733C3.39562 13.9682 3.25503 14.2403 3.04545 14.4545L2.99091 14.5091C2.82186 14.6779 2.68775 14.8785 2.59626 15.0992C2.50476 15.3199 2.45766 15.5565 2.45766 15.7955C2.45766 16.0344 2.50476 16.271 2.59626 16.4917C2.68775 16.7124 2.82186 16.913 2.99091 17.0818C3.15977 17.2509 3.36029 17.385 3.58102 17.4765C3.80174 17.568 4.03834 17.6151 4.27727 17.6151C4.51621 17.6151 4.7528 17.568 4.97353 17.4765C5.19425 17.385 5.39478 17.2509 5.56364 17.0818L5.61818 17.0273C5.83244 16.8177 6.10456 16.6771 6.39947 16.6236C6.69437 16.5702 6.99853 16.6063 7.27273 16.7273C7.55521 16.8312 7.79991 17.0176 7.97501 17.2625C8.15011 17.5073 8.24751 17.7991 8.25455 18.1V18.1818C8.25455 18.664 8.4461 19.1265 8.78708 19.4675C9.12805 19.8084 9.59052 20 10.0727 20C10.5549 20 11.0174 19.8084 11.3584 19.4675C11.6994 19.1265 11.8909 18.664 11.8909 18.1818V18.0273C11.8921 17.7347 11.9788 17.4489 12.1403 17.205C12.3018 16.9611 12.5311 16.7698 12.8 16.6545C13.0742 16.5335 13.3784 16.4974 13.6733 16.5509C13.9682 16.6044 14.2403 16.745 14.4545 16.9545L14.5091 17.0091C14.6779 17.1781 14.8785 17.3122 15.0992 17.4037C15.3199 17.4952 15.5565 17.5423 15.7955 17.5423C16.0344 17.5423 16.271 17.4952 16.4917 17.4037C16.7124 17.3122 16.913 17.1781 17.0818 17.0091C17.2509 16.8402 17.385 16.6397 17.4765 16.419C17.568 16.1983 17.6151 15.9617 17.6151 15.7227C17.6151 15.4838 17.568 15.2472 17.4765 15.0265C17.385 14.8057 17.2509 14.6052 17.0818 14.4364L17.0273 14.3818C16.8177 14.1676 16.6771 13.8954 16.6236 13.6005ZM12.7273 10C12.7273 11.5062 11.5062 12.7273 10 12.7273C8.49377 12.7273 7.27273 11.5062 7.27273 10C7.27273 8.49377 8.49377 7.27273 10 7.27273C11.5062 7.27273 12.7273 8.49377 12.7273 10Z" fill="white"/>
</svg>
