<svg width="32" height="34" viewBox="0 0 32 34" fill="none" xmlns="http://www.w3.org/2000/svg">
<circle cx="16" cy="18" r="16" fill="#AA7333"/>
<circle cx="16" cy="16" r="16" fill="url(#paint0_linear_7_1994)"/>
<circle cx="16" cy="16" r="12" fill="#A55820"/>
<path fill-rule="evenodd" clip-rule="evenodd" d="M4.04102 17C4.54907 10.8405 9.70923 6 16 6C22.2908 6 27.4509 10.8405 27.959 17C27.4509 23.1595 22.2908 28 16 28C9.70923 28 4.54907 23.1595 4.04102 17Z" fill="#B75F27"/>
<ellipse cx="27.726" cy="23.3534" rx="3" ry="1.5" transform="rotate(-62.2021 27.726 23.3534)" fill="white"/>
<ellipse cx="4.18496" cy="8.48275" rx="2.01582" ry="1.00791" transform="rotate(-62.2021 4.18496 8.48275)" fill="white"/>
<path d="M16 10C14.8955 10 14 10.8954 14 12V18C14 18.3733 14.1023 18.7227 14.2803 19.0217C14.4492 19.3628 14.7173 19.6595 15.0718 19.8641L20.2681 22.8641C21.2246 23.4164 22.4478 23.0886 23 22.132C23.5522 21.1754 23.2246 19.9523 22.2681 19.4L18 16.9359V12C18 10.8954 17.1045 10 16 10Z" fill="#A55820"/>
<path d="M16 9C14.8955 9 14 9.89542 14 11V17C14 17.3733 14.1023 17.7227 14.2803 18.0217C14.4492 18.3628 14.7173 18.6595 15.0718 18.8641L20.2681 21.8641C21.2246 22.4164 22.4478 22.0886 23 21.132C23.5522 20.1754 23.2246 18.9523 22.2681 18.4L18 15.9359V11C18 9.89542 17.1045 9 16 9Z" fill="#E9C25D"/>
<ellipse cx="21.1628" cy="20.1793" rx="0.661399" ry="0.995738" transform="rotate(43.0112 21.1628 20.1793)" fill="white"/>
<defs>
<linearGradient id="paint0_linear_7_1994" x1="16" y1="0" x2="16" y2="32" gradientUnits="userSpaceOnUse">
<stop stop-color="#ECC662"/>
<stop offset="1" stop-color="#E2BC55"/>
</linearGradient>
</defs>
</svg>
